<svg width="166" height="26" viewBox="0 0 166 26" fill="none" xmlns="http://www.w3.org/2000/svg">
<g filter="url(#filter0_d_5_3)">
<path d="M4 17.5V0H16.5V2.5H19V5H21.5V12.5H19V15H16.5V17.5H4ZM9 15H14V12.5H16.5V5H14V2.5H9V15ZM26.5 17.5V15H31.5V2.5H26.5V0H41.5V2.5H36.5V15H41.5V17.5H26.5ZM49 17.5V15H46.5V12.5H44V5H46.5V2.5H49V0H61.5V2.5H51.5V5H49V12.5H51.5V15H56.5V10H54V7.5H61.5V17.5H49ZM66.5 17.5V15H71.5V2.5H66.5V0H81.5V2.5H76.5V15H81.5V17.5H66.5ZM86.5 10V7.5H101.5V10H86.5ZM104 17.5V0H116.5V2.5H119V5H121.5V12.5H119V15H116.5V17.5H104ZM109 15H114V12.5H116.5V5H114V2.5H109V15ZM124 17.5V0H141.5V2.5H129V7.5H139V10H129V15H141.5V17.5H124ZM144 17.5V12.5H146.5V10H149V7.5H146.5V5H144V0H149V5H151.5V7.5H154V5H156.5V0H161.5V5H159V7.5H156.5V10H159V12.5H161.5V17.5H156.5V12.5H154V10H151.5V12.5H149V17.5H144Z" fill="white"/>
</g>
<defs>
<filter id="filter0_d_5_3" x="0" y="0" width="165.5" height="25.5" filterUnits="userSpaceOnUse" color-interpolation-filters="sRGB">
<feFlood flood-opacity="0" result="BackgroundImageFix"/>
<feColorMatrix in="SourceAlpha" type="matrix" values="0 0 0 0 0 0 0 0 0 0 0 0 0 0 0 0 0 0 127 0" result="hardAlpha"/>
<feOffset dy="4"/>
<feGaussianBlur stdDeviation="2"/>
<feComposite in2="hardAlpha" operator="out"/>
<feColorMatrix type="matrix" values="0 0 0 0 1 0 0 0 0 0.6 0 0 0 0 0 0 0 0 0.88 0"/>
<feBlend mode="normal" in2="BackgroundImageFix" result="effect1_dropShadow_5_3"/>
<feBlend mode="normal" in="SourceGraphic" in2="effect1_dropShadow_5_3" result="shape"/>
</filter>
</defs>
</svg>
